<svg width="18" height="18" viewBox="0 0 18 18" fill="none" xmlns="http://www.w3.org/2000/svg">
    <path d="M13.5 2.8125H12.5625V2.25C12.5625 1.9395 12.3105 1.6875 12 1.6875C11.6895 1.6875 11.4375 1.9395 11.4375 2.25V2.8125H6.5625V2.25C6.5625 1.9395 6.3105 1.6875 6 1.6875C5.6895 1.6875 5.4375 1.9395 5.4375 2.25V2.8125H4.5C2.6865 2.8125 1.6875 3.8115 1.6875 5.625V13.5C1.6875 15.3135 2.6865 16.3125 4.5 16.3125H13.5C15.3135 16.3125 16.3125 15.3135 16.3125 13.5V5.625C16.3125 3.8115 15.3135 2.8125 13.5 2.8125ZM4.5 3.9375H5.4375V4.5C5.4375 4.8105 5.6895 5.0625 6 5.0625C6.3105 5.0625 6.5625 4.8105 6.5625 4.5V3.9375H11.4375V4.5C11.4375 4.8105 11.6895 5.0625 12 5.0625C12.3105 5.0625 12.5625 4.8105 12.5625 4.5V3.9375H13.5C14.6827 3.9375 15.1875 4.44225 15.1875 5.625V6.1875H2.8125V5.625C2.8125 4.44225 3.31725 3.9375 4.5 3.9375ZM13.5 15.1875H4.5C3.31725 15.1875 2.8125 14.6827 2.8125 13.5V7.3125H15.1875V13.5C15.1875 14.6827 14.6827 15.1875 13.5 15.1875Z" fill="#494949" />
</svg>