<svg
    width="24"
    height="25"
    viewBox="0 0 24 25"
    fill="none"
    xmlns="http://www.w3.org/2000/svg"
>
    <path
      d="M18.5297 17.9964C18.8227 18.2894 18.8227 18.7644 18.5297 19.0574C18.3837 19.2034 18.1917 19.2774 17.9997 19.2774C17.8077 19.2774 17.6158 19.2044 17.4698 19.0574L11.9997 13.5874L6.52975 19.0574C6.38375 19.2034 6.19175 19.2774 5.99975 19.2774C5.80775 19.2774 5.61575 19.2044 5.46975 19.0574C5.17675 18.7644 5.17675 18.2894 5.46975 17.9964L10.9398 12.5264L5.46975 7.05642C5.17675 6.76342 5.17675 6.28838 5.46975 5.99538C5.76275 5.70238 6.23775 5.70238 6.53075 5.99538L12.0008 11.4654L17.4707 5.99538C17.7637 5.70238 18.2387 5.70238 18.5317 5.99538C18.8247 6.28838 18.8247 6.76342 18.5317 7.05642L13.0617 12.5264L18.5297 17.9964Z"
      fill="#25314C"
    />
</svg>