<svg width="46" height="46" viewBox="0 0 46 46" fill="none" xmlns="http://www.w3.org/2000/svg">
    <rect x="3" y="3" width="40" height="40" rx="20" fill="#F3F2F2" />
    <rect x="3" y="3" width="40" height="40" rx="20" stroke="#F3F2F2" stroke-width="6" />
    <path d="M31.0758 23.8402C31.0758 23.8377 31.0774 23.8352 31.0774 23.8327C31.0774 23.8252 31.0733 23.8193 31.0733 23.8118C31.0633 23.7527 31.0517 23.6935 31.0375 23.6343C31.0308 23.6143 31.0275 23.5944 31.0192 23.5752C30.9792 23.4194 30.9391 23.2643 30.875 23.1143L29.2258 19.2677C28.8083 18.2935 28.4141 17.3735 26.3533 17.3735C26.0083 17.3735 25.7283 17.6535 25.7283 17.9985C25.7283 18.3435 26.0083 18.6235 26.3533 18.6235C27.5899 18.6235 27.7025 18.8868 28.0767 19.7602L29.5542 23.2068H27.2057C26.1641 23.2068 25.1984 23.7943 24.6209 24.7793C24.2867 25.351 23.6658 25.7068 23.0016 25.7068C22.3375 25.7068 21.7165 25.351 21.3824 24.7785C20.8057 23.7944 19.8392 23.2068 18.7975 23.2068H16.4491L17.9266 19.7602C18.3007 18.8868 18.4133 18.6235 19.65 18.6235C19.995 18.6235 20.275 18.3435 20.275 17.9985C20.275 17.6535 19.995 17.3735 19.65 17.3735C17.5883 17.3735 17.195 18.2935 16.7775 19.2677L15.1283 23.1135C15.0641 23.2635 15.0232 23.4193 14.9832 23.576C14.9757 23.5927 14.9732 23.611 14.9666 23.6285C14.9524 23.6893 14.94 23.7502 14.9291 23.8118C14.9291 23.8185 14.925 23.8243 14.925 23.831C14.925 23.8335 14.9259 23.8352 14.9259 23.8377C14.8984 24.0044 14.875 24.1727 14.875 24.3444V27.9993C14.875 30.0143 15.985 31.1243 18 31.1243H28C30.015 31.1243 31.125 30.0143 31.125 27.9993V24.346C31.1267 24.1743 31.1033 24.0068 31.0758 23.8402ZM28.0016 29.8743H18.0016C16.6875 29.8743 16.1266 29.3135 16.1266 27.9993V24.4577H18.7975C19.3909 24.4577 19.9533 24.8144 20.3033 25.411C20.8608 26.3652 21.895 26.9577 23.0016 26.9577C24.1083 26.9577 25.1425 26.3652 25.7 25.4118C26.05 24.8143 26.6124 24.4577 27.2057 24.4577H29.8766V27.9993C29.8766 29.3135 29.3158 29.8743 28.0016 29.8743ZM20.8933 16.7743C20.6491 16.5302 20.6491 16.1343 20.8933 15.8902L22.5599 14.2235C22.6174 14.166 22.6867 14.1202 22.7634 14.0885C22.9159 14.0252 23.0884 14.0252 23.2409 14.0885C23.3176 14.1202 23.3866 14.166 23.4441 14.2235L25.1108 15.8902C25.355 16.1343 25.355 16.5302 25.1108 16.7743C24.9891 16.896 24.8291 16.9577 24.6691 16.9577C24.5091 16.9577 24.3491 16.8968 24.2274 16.7743L23.6274 16.1743V21.3327C23.6274 21.6777 23.3474 21.9577 23.0024 21.9577C22.6574 21.9577 22.3774 21.6777 22.3774 21.3327V16.1752L21.7775 16.7752C21.5325 17.0185 21.1374 17.0185 20.8933 16.7743Z" fill="#231D43" />
</svg>