<svg width="72" height="72" viewBox="0 0 72 72" fill="none" xmlns="http://www.w3.org/2000/svg">
<rect width="72" height="72" rx="36" fill="#F3F2F2"/>
<path d="M45.8961 48.9987H27.2308C26.6788 48.9987 26.2308 48.5507 26.2308 47.9987C26.2308 47.4467 26.6788 46.9987 27.2308 46.9987H45.8961C46.4481 46.9987 46.8961 47.4467 46.8961 47.9987C46.8961 48.5507 46.4481 48.9987 45.8961 48.9987ZM43.124 41.332V35.6653H45.3548C46.3121 35.6653 47.1574 35.0907 47.5107 34.2027C47.864 33.3134 47.6426 32.316 46.9466 31.66L38.5814 23.756C37.5134 22.748 35.8414 22.748 34.7747 23.756L26.4095 31.66C25.7148 32.316 25.492 33.3147 25.8453 34.204C26.2 35.0933 27.0439 35.6666 28.0013 35.6666H30.4586V41.332C30.4586 42.6187 31.5053 43.6653 32.792 43.6653H40.792C42.0773 43.6653 43.124 42.6187 43.124 41.332ZM28 33.6653C27.82 33.6653 27.7401 33.556 27.7028 33.464C27.6668 33.372 27.6493 33.2373 27.7799 33.1133L36.1455 25.2094C36.4455 24.928 36.908 24.928 37.208 25.2094L45.5735 33.1133C45.7042 33.236 45.6867 33.372 45.6507 33.464C45.6147 33.556 45.5335 33.6653 45.3535 33.6653H42.1227C41.8574 33.6653 41.6027 33.7706 41.416 33.9586C41.2293 34.1466 41.1227 34.4 41.1227 34.6653V41.332C41.1227 41.516 40.9734 41.6653 40.7894 41.6653H32.7894C32.6054 41.6653 32.456 41.516 32.456 41.332V34.6653C32.456 34.4 32.3507 34.1453 32.1627 33.9586C31.9747 33.7706 31.7214 33.6653 31.456 33.6653H28Z" fill="#25314C"/>
</svg>