<svg id="Capa_1" data-name="Capa 1" xmlns="http://www.w3.org/2000/svg" viewBox="0 0 804.05 131.71"><polygon points="0 52.07 52.68 52.07 68.61 0 85.76 52.07 139.67 52.07 96.18 83.31 112.72 131.71 69.83 104.14 28.79 131.71 41.04 86.38 0 52.07" style="fill:#f6b940"/><polygon points="166.1 52.07 218.78 52.07 234.71 0 251.86 52.07 305.77 52.07 262.27 83.31 278.81 131.71 235.93 104.14 194.89 131.71 207.14 86.38 166.1 52.07" style="fill:#f6b940"/><polygon points="332.19 52.07 384.87 52.07 400.8 0 417.95 52.07 471.86 52.07 428.37 83.31 444.91 131.71 402.03 104.14 360.98 131.71 373.24 86.38 332.19 52.07" style="fill:#f6b940"/><polygon points="499.33 52.07 552.01 52.07 567.94 0 585.09 52.07 639 52.07 595.51 83.31 612.05 131.71 569.17 104.14 528.12 131.71 540.38 86.38 499.33 52.07" style="fill:#fff"/><polygon points="664.38 52.07 717.07 52.07 732.99 0 750.14 52.07 804.05 52.07 760.56 83.31 777.1 131.71 734.22 104.14 693.17 131.71 705.43 86.38 664.38 52.07" style="fill:#fff"/></svg>